<svg width="157" height="61" viewBox="0 0 157 61" fill="none" xmlns="http://www.w3.org/2000/svg">
<rect width="46" height="61" fill="#9A989D"/>
<path d="M34.2529 7.5127L32.6523 26.4668L37.2803 34.5762L37.3008 34.6104V54.3008H33.9541V38.3008H14.3447L14.3008 54.1504L14.2998 54.3008H11V34.6133L11.0176 34.5801L15.3457 26.4697L13.3506 7.51562L13.333 7.34961H34.2666L34.2529 7.5127ZM17.1621 28.085L14.25 34.085L14.1455 34.3008H33.8936L33.7852 34.083L30.7852 28.083L30.7432 28H17.2031L17.1621 28.085ZM16.5 10.5L18 25.5H29.5L31 10.5H16.5Z" fill="#FDFDFE"/>
<rect x="47.5" y="1.5" width="108" height="58" fill="white" stroke="#9A989D" stroke-width="3"/>
<path d="M60.6 19.888H67.392V12.904H72.096V31H67.392V23.536H60.6V31H55.896V12.904H60.6V19.888ZM78.6722 12.904V31H73.9682V12.904H78.6722ZM90.8286 16.888H85.2366V19.912H90.5166V23.896H85.2366V27.016H90.8286V31H80.5326V12.904H90.8286V16.888ZM97.0041 12.904V27.016H102.644V31H92.3001V12.904H97.0041ZM106.906 21.952C106.906 22.672 107.042 23.336 107.314 23.944C107.586 24.552 107.954 25.08 108.418 25.528C108.882 25.976 109.418 26.328 110.026 26.584C110.65 26.824 111.306 26.944 111.994 26.944C112.682 26.944 113.33 26.824 113.938 26.584C114.562 26.328 115.106 25.976 115.57 25.528C116.05 25.08 116.426 24.552 116.698 23.944C116.97 23.336 117.106 22.672 117.106 21.952C117.106 21.232 116.97 20.568 116.698 19.96C116.426 19.352 116.05 18.824 115.57 18.376C115.106 17.928 114.562 17.584 113.938 17.344C113.33 17.088 112.682 16.96 111.994 16.96C111.306 16.96 110.65 17.088 110.026 17.344C109.418 17.584 108.882 17.928 108.418 18.376C107.954 18.824 107.586 19.352 107.314 19.96C107.042 20.568 106.906 21.232 106.906 21.952ZM101.986 21.952C101.986 20.608 102.234 19.36 102.73 18.208C103.226 17.04 103.914 16.024 104.794 15.16C105.674 14.296 106.722 13.624 107.938 13.144C109.17 12.648 110.522 12.4 111.994 12.4C113.45 12.4 114.794 12.648 116.026 13.144C117.258 13.624 118.314 14.296 119.194 15.16C120.09 16.024 120.786 17.04 121.282 18.208C121.778 19.36 122.026 20.608 122.026 21.952C122.026 23.296 121.778 24.552 121.282 25.72C120.786 26.872 120.09 27.88 119.194 28.744C118.314 29.608 117.258 30.288 116.026 30.784C114.794 31.264 113.45 31.504 111.994 31.504C110.522 31.504 109.17 31.264 107.938 30.784C106.722 30.288 105.674 29.608 104.794 28.744C103.914 27.88 103.226 26.872 102.73 25.72C102.234 24.552 101.986 23.296 101.986 21.952ZM133.013 17.536C132.501 17.12 131.989 16.816 131.477 16.624C130.965 16.416 130.469 16.312 129.989 16.312C129.381 16.312 128.885 16.456 128.501 16.744C128.117 17.032 127.925 17.408 127.925 17.872C127.925 18.192 128.021 18.456 128.213 18.664C128.405 18.872 128.653 19.056 128.957 19.216C129.277 19.36 129.629 19.488 130.013 19.6C130.413 19.712 130.805 19.832 131.189 19.96C132.725 20.472 133.845 21.16 134.549 22.024C135.269 22.872 135.629 23.984 135.629 25.36C135.629 26.288 135.469 27.128 135.149 27.88C134.845 28.632 134.389 29.28 133.781 29.824C133.189 30.352 132.453 30.76 131.573 31.048C130.709 31.352 129.725 31.504 128.621 31.504C126.333 31.504 124.213 30.824 122.261 29.464L124.277 25.672C124.981 26.296 125.677 26.76 126.365 27.064C127.053 27.368 127.733 27.52 128.405 27.52C129.173 27.52 129.741 27.344 130.109 26.992C130.493 26.64 130.685 26.24 130.685 25.792C130.685 25.52 130.637 25.288 130.541 25.096C130.445 24.888 130.285 24.704 130.061 24.544C129.837 24.368 129.541 24.208 129.173 24.064C128.821 23.92 128.389 23.76 127.877 23.584C127.269 23.392 126.669 23.184 126.077 22.96C125.501 22.72 124.981 22.408 124.517 22.024C124.069 21.64 123.701 21.16 123.413 20.584C123.141 19.992 123.005 19.248 123.005 18.352C123.005 17.456 123.149 16.648 123.437 15.928C123.741 15.192 124.157 14.568 124.685 14.056C125.229 13.528 125.885 13.12 126.653 12.832C127.437 12.544 128.309 12.4 129.269 12.4C130.165 12.4 131.101 12.528 132.077 12.784C133.053 13.024 133.989 13.384 134.885 13.864L133.013 17.536ZM60.6 49.016H61.68C62.496 49.016 63.224 48.888 63.864 48.632C64.504 48.376 65.04 48.024 65.472 47.576C65.92 47.128 66.256 46.6 66.48 45.992C66.72 45.368 66.84 44.688 66.84 43.952C66.84 43.232 66.72 42.56 66.48 41.936C66.24 41.312 65.896 40.776 65.448 40.328C65.016 39.88 64.48 39.528 63.84 39.272C63.2 39.016 62.48 38.888 61.68 38.888H60.6V49.016ZM55.896 34.904H62.856C64.088 34.904 65.24 35.152 66.312 35.648C67.4 36.144 68.344 36.808 69.144 37.64C69.96 38.456 70.6 39.416 71.064 40.52C71.528 41.608 71.76 42.752 71.76 43.952C71.76 45.136 71.528 46.28 71.064 47.384C70.616 48.472 69.984 49.432 69.168 50.264C68.368 51.096 67.424 51.76 66.336 52.256C65.264 52.752 64.104 53 62.856 53H55.896V34.904ZM83.1392 38.888H77.5472V41.912H82.8272V45.896H77.5472V49.016H83.1392V53H72.8432V34.904H83.1392V38.888ZM89.3147 34.904V49.016H94.9547V53H84.6107V34.904H89.3147ZM111.636 39.536C111.124 39.12 110.612 38.816 110.1 38.624C109.588 38.416 109.092 38.312 108.612 38.312C108.004 38.312 107.508 38.456 107.124 38.744C106.74 39.032 106.548 39.408 106.548 39.872C106.548 40.192 106.644 40.456 106.836 40.664C107.028 40.872 107.276 41.056 107.58 41.216C107.9 41.36 108.252 41.488 108.636 41.6C109.036 41.712 109.428 41.832 109.812 41.96C111.348 42.472 112.468 43.16 113.172 44.024C113.892 44.872 114.252 45.984 114.252 47.36C114.252 48.288 114.092 49.128 113.772 49.88C113.468 50.632 113.012 51.28 112.404 51.824C111.812 52.352 111.076 52.76 110.196 53.048C109.332 53.352 108.348 53.504 107.244 53.504C104.956 53.504 102.836 52.824 100.884 51.464L102.9 47.672C103.604 48.296 104.3 48.76 104.988 49.064C105.676 49.368 106.356 49.52 107.028 49.52C107.796 49.52 108.364 49.344 108.732 48.992C109.116 48.64 109.308 48.24 109.308 47.792C109.308 47.52 109.26 47.288 109.164 47.096C109.068 46.888 108.908 46.704 108.684 46.544C108.46 46.368 108.164 46.208 107.796 46.064C107.444 45.92 107.012 45.76 106.5 45.584C105.892 45.392 105.292 45.184 104.7 44.96C104.124 44.72 103.604 44.408 103.14 44.024C102.692 43.64 102.324 43.16 102.036 42.584C101.764 41.992 101.628 41.248 101.628 40.352C101.628 39.456 101.772 38.648 102.06 37.928C102.364 37.192 102.78 36.568 103.308 36.056C103.852 35.528 104.508 35.12 105.276 34.832C106.06 34.544 106.932 34.4 107.892 34.4C108.788 34.4 109.724 34.528 110.7 34.784C111.676 35.024 112.612 35.384 113.508 35.864L111.636 39.536ZM120 34.904V44.744C120 45.272 120.016 45.816 120.048 46.376C120.096 46.92 120.216 47.416 120.408 47.864C120.616 48.312 120.936 48.68 121.368 48.968C121.8 49.24 122.408 49.376 123.192 49.376C123.976 49.376 124.576 49.24 124.992 48.968C125.424 48.68 125.744 48.312 125.952 47.864C126.16 47.416 126.28 46.92 126.312 46.376C126.36 45.816 126.384 45.272 126.384 44.744V34.904H131.064V45.392C131.064 48.208 130.416 50.264 129.12 51.56C127.84 52.856 125.864 53.504 123.192 53.504C120.52 53.504 118.536 52.856 117.24 51.56C115.944 50.264 115.296 48.208 115.296 45.392V34.904H120ZM137.65 42.992H138.538C139.466 42.992 140.178 42.8 140.674 42.416C141.17 42.032 141.418 41.48 141.418 40.76C141.418 40.04 141.17 39.488 140.674 39.104C140.178 38.72 139.466 38.528 138.538 38.528H137.65V42.992ZM147.994 53H142.138L137.65 46.04V53H132.946V34.904H140.266C141.274 34.904 142.154 35.056 142.906 35.36C143.658 35.648 144.274 36.048 144.754 36.56C145.25 37.072 145.618 37.664 145.858 38.336C146.114 39.008 146.242 39.728 146.242 40.496C146.242 41.872 145.906 42.992 145.234 43.856C144.578 44.704 143.602 45.28 142.306 45.584L147.994 53Z" fill="#9A989D"/>
</svg>
