<svg width="150" height="61" viewBox="0 0 150 61" fill="none" xmlns="http://www.w3.org/2000/svg">
<rect width="150" height="61" fill="#F3F3F3"/>
<path d="M34.2529 7.5127L32.6523 26.4668L37.2803 34.5762L37.3008 34.6104V54.3008H33.9541V38.3008H14.3447L14.3008 54.1504L14.2998 54.3008H11V34.6133L11.0176 34.5801L15.3457 26.4697L13.3506 7.51562L13.333 7.34961H34.2666L34.2529 7.5127ZM17.1299 28.085L14.2412 34.085L14.1377 34.3008H33.8936L33.7852 34.083L30.7852 28.083L30.7432 28H17.1709L17.1299 28.085ZM16.5 10.5L18 25.5H29.5L31 10.5H16.5Z" fill="#939497"/>
<rect x="42" y="4" width="104" height="54" fill="#939497"/>
<path d="M54.6 17.888H61.392V10.904H66.096V29H61.392V21.536H54.6V29H49.896V10.904H54.6V17.888Z" fill="#FDFDFE"/>
<path d="M72.6722 10.904V29H67.9682V10.904H72.6722Z" fill="#FDFDFE"/>
<path d="M84.8286 14.888H79.2366V17.912H84.5166V21.896H79.2366V25.016H84.8286V29H74.5326V10.904H84.8286V14.888Z" fill="#FDFDFE"/>
<path d="M91.0041 10.904V25.016H96.6441V29H86.3001V10.904H91.0041Z" fill="#FDFDFE"/>
<path d="M100.906 19.952C100.906 20.672 101.042 21.336 101.314 21.944C101.586 22.552 101.954 23.08 102.418 23.528C102.882 23.976 103.418 24.328 104.026 24.584C104.65 24.824 105.306 24.944 105.994 24.944C106.682 24.944 107.33 24.824 107.938 24.584C108.562 24.328 109.106 23.976 109.57 23.528C110.05 23.08 110.426 22.552 110.698 21.944C110.97 21.336 111.106 20.672 111.106 19.952C111.106 19.232 110.97 18.568 110.698 17.96C110.426 17.352 110.05 16.824 109.57 16.376C109.106 15.928 108.562 15.584 107.938 15.344C107.33 15.088 106.682 14.96 105.994 14.96C105.306 14.96 104.65 15.088 104.026 15.344C103.418 15.584 102.882 15.928 102.418 16.376C101.954 16.824 101.586 17.352 101.314 17.96C101.042 18.568 100.906 19.232 100.906 19.952ZM95.9859 19.952C95.9859 18.608 96.2339 17.36 96.7299 16.208C97.2259 15.04 97.9139 14.024 98.7939 13.16C99.6739 12.296 100.722 11.624 101.938 11.144C103.17 10.648 104.522 10.4 105.994 10.4C107.45 10.4 108.794 10.648 110.026 11.144C111.258 11.624 112.314 12.296 113.194 13.16C114.09 14.024 114.786 15.04 115.282 16.208C115.778 17.36 116.026 18.608 116.026 19.952C116.026 21.296 115.778 22.552 115.282 23.72C114.786 24.872 114.09 25.88 113.194 26.744C112.314 27.608 111.258 28.288 110.026 28.784C108.794 29.264 107.45 29.504 105.994 29.504C104.522 29.504 103.17 29.264 101.938 28.784C100.722 28.288 99.6739 27.608 98.7939 26.744C97.9139 25.88 97.2259 24.872 96.7299 23.72C96.2339 22.552 95.9859 21.296 95.9859 19.952Z" fill="#FDFDFE"/>
<path d="M127.013 15.536C126.501 15.12 125.989 14.816 125.477 14.624C124.965 14.416 124.469 14.312 123.989 14.312C123.381 14.312 122.885 14.456 122.501 14.744C122.117 15.032 121.925 15.408 121.925 15.872C121.925 16.192 122.021 16.456 122.213 16.664C122.405 16.872 122.653 17.056 122.957 17.216C123.277 17.36 123.629 17.488 124.013 17.6C124.413 17.712 124.805 17.832 125.189 17.96C126.725 18.472 127.845 19.16 128.549 20.024C129.269 20.872 129.629 21.984 129.629 23.36C129.629 24.288 129.469 25.128 129.149 25.88C128.845 26.632 128.389 27.28 127.781 27.824C127.189 28.352 126.453 28.76 125.573 29.048C124.709 29.352 123.725 29.504 122.621 29.504C120.333 29.504 118.213 28.824 116.261 27.464L118.277 23.672C118.981 24.296 119.677 24.76 120.365 25.064C121.053 25.368 121.733 25.52 122.405 25.52C123.173 25.52 123.741 25.344 124.109 24.992C124.493 24.64 124.685 24.24 124.685 23.792C124.685 23.52 124.637 23.288 124.541 23.096C124.445 22.888 124.285 22.704 124.061 22.544C123.837 22.368 123.541 22.208 123.173 22.064C122.821 21.92 122.389 21.76 121.877 21.584C121.269 21.392 120.669 21.184 120.077 20.96C119.501 20.72 118.981 20.408 118.517 20.024C118.069 19.64 117.701 19.16 117.413 18.584C117.141 17.992 117.005 17.248 117.005 16.352C117.005 15.456 117.149 14.648 117.437 13.928C117.741 13.192 118.157 12.568 118.685 12.056C119.229 11.528 119.885 11.12 120.653 10.832C121.437 10.544 122.309 10.4 123.269 10.4C124.165 10.4 125.101 10.528 126.077 10.784C127.053 11.024 127.989 11.384 128.885 11.864L127.013 15.536Z" fill="#FDFDFE"/>
<path d="M54.6 47.016H55.68C56.496 47.016 57.224 46.888 57.864 46.632C58.504 46.376 59.04 46.024 59.472 45.576C59.92 45.128 60.256 44.6 60.48 43.992C60.72 43.368 60.84 42.688 60.84 41.952C60.84 41.232 60.72 40.56 60.48 39.936C60.24 39.312 59.896 38.776 59.448 38.328C59.016 37.88 58.48 37.528 57.84 37.272C57.2 37.016 56.48 36.888 55.68 36.888H54.6V47.016ZM49.896 32.904H56.856C58.088 32.904 59.24 33.152 60.312 33.648C61.4 34.144 62.344 34.808 63.144 35.64C63.96 36.456 64.6 37.416 65.064 38.52C65.528 39.608 65.76 40.752 65.76 41.952C65.76 43.136 65.528 44.28 65.064 45.384C64.616 46.472 63.984 47.432 63.168 48.264C62.368 49.096 61.424 49.76 60.336 50.256C59.264 50.752 58.104 51 56.856 51H49.896V32.904Z" fill="#FDFDFE"/>
<path d="M77.1392 36.888H71.5472V39.912H76.8272V43.896H71.5472V47.016H77.1392V51H66.8432V32.904H77.1392V36.888Z" fill="#FDFDFE"/>
<path d="M83.3147 32.904V47.016H88.9547V51H78.6107V32.904H83.3147Z" fill="#FDFDFE"/>
<path d="M105.636 37.536C105.124 37.12 104.612 36.816 104.1 36.624C103.588 36.416 103.092 36.312 102.612 36.312C102.004 36.312 101.508 36.456 101.124 36.744C100.74 37.032 100.548 37.408 100.548 37.872C100.548 38.192 100.644 38.456 100.836 38.664C101.028 38.872 101.276 39.056 101.58 39.216C101.9 39.36 102.252 39.488 102.636 39.6C103.036 39.712 103.428 39.832 103.812 39.96C105.348 40.472 106.468 41.16 107.172 42.024C107.892 42.872 108.252 43.984 108.252 45.36C108.252 46.288 108.092 47.128 107.772 47.88C107.468 48.632 107.012 49.28 106.404 49.824C105.812 50.352 105.076 50.76 104.196 51.048C103.332 51.352 102.348 51.504 101.244 51.504C98.9564 51.504 96.8364 50.824 94.8844 49.464L96.9004 45.672C97.6044 46.296 98.3004 46.76 98.9884 47.064C99.6764 47.368 100.356 47.52 101.028 47.52C101.796 47.52 102.364 47.344 102.732 46.992C103.116 46.64 103.308 46.24 103.308 45.792C103.308 45.52 103.26 45.288 103.164 45.096C103.068 44.888 102.908 44.704 102.684 44.544C102.46 44.368 102.164 44.208 101.796 44.064C101.444 43.92 101.012 43.76 100.5 43.584C99.8924 43.392 99.2924 43.184 98.7004 42.96C98.1244 42.72 97.6044 42.408 97.1404 42.024C96.6924 41.64 96.3244 41.16 96.0364 40.584C95.7644 39.992 95.6284 39.248 95.6284 38.352C95.6284 37.456 95.7724 36.648 96.0604 35.928C96.3644 35.192 96.7804 34.568 97.3084 34.056C97.8524 33.528 98.5084 33.12 99.2764 32.832C100.06 32.544 100.932 32.4 101.892 32.4C102.788 32.4 103.724 32.528 104.7 32.784C105.676 33.024 106.612 33.384 107.508 33.864L105.636 37.536Z" fill="#FDFDFE"/>
<path d="M114 32.904V42.744C114 43.272 114.016 43.816 114.048 44.376C114.096 44.92 114.216 45.416 114.408 45.864C114.616 46.312 114.936 46.68 115.368 46.968C115.8 47.24 116.408 47.376 117.192 47.376C117.976 47.376 118.576 47.24 118.992 46.968C119.424 46.68 119.744 46.312 119.952 45.864C120.16 45.416 120.28 44.92 120.312 44.376C120.36 43.816 120.384 43.272 120.384 42.744V32.904H125.064V43.392C125.064 46.208 124.416 48.264 123.12 49.56C121.84 50.856 119.864 51.504 117.192 51.504C114.52 51.504 112.536 50.856 111.24 49.56C109.944 48.264 109.296 46.208 109.296 43.392V32.904H114Z" fill="#FDFDFE"/>
<path d="M131.65 40.992H132.538C133.466 40.992 134.178 40.8 134.674 40.416C135.17 40.032 135.418 39.48 135.418 38.76C135.418 38.04 135.17 37.488 134.674 37.104C134.178 36.72 133.466 36.528 132.538 36.528H131.65V40.992ZM141.994 51H136.138L131.65 44.04V51H126.946V32.904H134.266C135.274 32.904 136.154 33.056 136.906 33.36C137.658 33.648 138.274 34.048 138.754 34.56C139.25 35.072 139.618 35.664 139.858 36.336C140.114 37.008 140.242 37.728 140.242 38.496C140.242 39.872 139.906 40.992 139.234 41.856C138.578 42.704 137.602 43.28 136.306 43.584L141.994 51Z" fill="#FDFDFE"/>
<path d="M54.6 17.888H61.392V10.904H66.096V29H61.392V21.536H54.6V29H49.896V10.904H54.6V17.888Z" stroke="#939497" stroke-width="0.6"/>
<path d="M72.6722 10.904V29H67.9682V10.904H72.6722Z" stroke="#939497" stroke-width="0.6"/>
<path d="M84.8286 14.888H79.2366V17.912H84.5166V21.896H79.2366V25.016H84.8286V29H74.5326V10.904H84.8286V14.888Z" stroke="#939497" stroke-width="0.6"/>
<path d="M91.0041 10.904V25.016H96.6441V29H86.3001V10.904H91.0041Z" stroke="#939497" stroke-width="0.6"/>
<path d="M100.906 19.952C100.906 20.672 101.042 21.336 101.314 21.944C101.586 22.552 101.954 23.08 102.418 23.528C102.882 23.976 103.418 24.328 104.026 24.584C104.65 24.824 105.306 24.944 105.994 24.944C106.682 24.944 107.33 24.824 107.938 24.584C108.562 24.328 109.106 23.976 109.57 23.528C110.05 23.08 110.426 22.552 110.698 21.944C110.97 21.336 111.106 20.672 111.106 19.952C111.106 19.232 110.97 18.568 110.698 17.96C110.426 17.352 110.05 16.824 109.57 16.376C109.106 15.928 108.562 15.584 107.938 15.344C107.33 15.088 106.682 14.96 105.994 14.96C105.306 14.96 104.65 15.088 104.026 15.344C103.418 15.584 102.882 15.928 102.418 16.376C101.954 16.824 101.586 17.352 101.314 17.96C101.042 18.568 100.906 19.232 100.906 19.952ZM95.9859 19.952C95.9859 18.608 96.2339 17.36 96.7299 16.208C97.2259 15.04 97.9139 14.024 98.7939 13.16C99.6739 12.296 100.722 11.624 101.938 11.144C103.17 10.648 104.522 10.4 105.994 10.4C107.45 10.4 108.794 10.648 110.026 11.144C111.258 11.624 112.314 12.296 113.194 13.16C114.09 14.024 114.786 15.04 115.282 16.208C115.778 17.36 116.026 18.608 116.026 19.952C116.026 21.296 115.778 22.552 115.282 23.72C114.786 24.872 114.09 25.88 113.194 26.744C112.314 27.608 111.258 28.288 110.026 28.784C108.794 29.264 107.45 29.504 105.994 29.504C104.522 29.504 103.17 29.264 101.938 28.784C100.722 28.288 99.6739 27.608 98.7939 26.744C97.9139 25.88 97.2259 24.872 96.7299 23.72C96.2339 22.552 95.9859 21.296 95.9859 19.952Z" stroke="#939497" stroke-width="0.6"/>
<path d="M127.013 15.536C126.501 15.12 125.989 14.816 125.477 14.624C124.965 14.416 124.469 14.312 123.989 14.312C123.381 14.312 122.885 14.456 122.501 14.744C122.117 15.032 121.925 15.408 121.925 15.872C121.925 16.192 122.021 16.456 122.213 16.664C122.405 16.872 122.653 17.056 122.957 17.216C123.277 17.36 123.629 17.488 124.013 17.6C124.413 17.712 124.805 17.832 125.189 17.96C126.725 18.472 127.845 19.16 128.549 20.024C129.269 20.872 129.629 21.984 129.629 23.36C129.629 24.288 129.469 25.128 129.149 25.88C128.845 26.632 128.389 27.28 127.781 27.824C127.189 28.352 126.453 28.76 125.573 29.048C124.709 29.352 123.725 29.504 122.621 29.504C120.333 29.504 118.213 28.824 116.261 27.464L118.277 23.672C118.981 24.296 119.677 24.76 120.365 25.064C121.053 25.368 121.733 25.52 122.405 25.52C123.173 25.52 123.741 25.344 124.109 24.992C124.493 24.64 124.685 24.24 124.685 23.792C124.685 23.52 124.637 23.288 124.541 23.096C124.445 22.888 124.285 22.704 124.061 22.544C123.837 22.368 123.541 22.208 123.173 22.064C122.821 21.92 122.389 21.76 121.877 21.584C121.269 21.392 120.669 21.184 120.077 20.96C119.501 20.72 118.981 20.408 118.517 20.024C118.069 19.64 117.701 19.16 117.413 18.584C117.141 17.992 117.005 17.248 117.005 16.352C117.005 15.456 117.149 14.648 117.437 13.928C117.741 13.192 118.157 12.568 118.685 12.056C119.229 11.528 119.885 11.12 120.653 10.832C121.437 10.544 122.309 10.4 123.269 10.4C124.165 10.4 125.101 10.528 126.077 10.784C127.053 11.024 127.989 11.384 128.885 11.864L127.013 15.536Z" stroke="#939497" stroke-width="0.6"/>
<path d="M54.6 47.016H55.68C56.496 47.016 57.224 46.888 57.864 46.632C58.504 46.376 59.04 46.024 59.472 45.576C59.92 45.128 60.256 44.6 60.48 43.992C60.72 43.368 60.84 42.688 60.84 41.952C60.84 41.232 60.72 40.56 60.48 39.936C60.24 39.312 59.896 38.776 59.448 38.328C59.016 37.88 58.48 37.528 57.84 37.272C57.2 37.016 56.48 36.888 55.68 36.888H54.6V47.016ZM49.896 32.904H56.856C58.088 32.904 59.24 33.152 60.312 33.648C61.4 34.144 62.344 34.808 63.144 35.64C63.96 36.456 64.6 37.416 65.064 38.52C65.528 39.608 65.76 40.752 65.76 41.952C65.76 43.136 65.528 44.28 65.064 45.384C64.616 46.472 63.984 47.432 63.168 48.264C62.368 49.096 61.424 49.76 60.336 50.256C59.264 50.752 58.104 51 56.856 51H49.896V32.904Z" stroke="#939497" stroke-width="0.6"/>
<path d="M77.1392 36.888H71.5472V39.912H76.8272V43.896H71.5472V47.016H77.1392V51H66.8432V32.904H77.1392V36.888Z" stroke="#939497" stroke-width="0.6"/>
<path d="M83.3147 32.904V47.016H88.9547V51H78.6107V32.904H83.3147Z" stroke="#939497" stroke-width="0.6"/>
<path d="M105.636 37.536C105.124 37.12 104.612 36.816 104.1 36.624C103.588 36.416 103.092 36.312 102.612 36.312C102.004 36.312 101.508 36.456 101.124 36.744C100.74 37.032 100.548 37.408 100.548 37.872C100.548 38.192 100.644 38.456 100.836 38.664C101.028 38.872 101.276 39.056 101.58 39.216C101.9 39.36 102.252 39.488 102.636 39.6C103.036 39.712 103.428 39.832 103.812 39.96C105.348 40.472 106.468 41.16 107.172 42.024C107.892 42.872 108.252 43.984 108.252 45.36C108.252 46.288 108.092 47.128 107.772 47.88C107.468 48.632 107.012 49.28 106.404 49.824C105.812 50.352 105.076 50.76 104.196 51.048C103.332 51.352 102.348 51.504 101.244 51.504C98.9564 51.504 96.8364 50.824 94.8844 49.464L96.9004 45.672C97.6044 46.296 98.3004 46.76 98.9884 47.064C99.6764 47.368 100.356 47.52 101.028 47.52C101.796 47.52 102.364 47.344 102.732 46.992C103.116 46.64 103.308 46.24 103.308 45.792C103.308 45.52 103.26 45.288 103.164 45.096C103.068 44.888 102.908 44.704 102.684 44.544C102.46 44.368 102.164 44.208 101.796 44.064C101.444 43.92 101.012 43.76 100.5 43.584C99.8924 43.392 99.2924 43.184 98.7004 42.96C98.1244 42.72 97.6044 42.408 97.1404 42.024C96.6924 41.64 96.3244 41.16 96.0364 40.584C95.7644 39.992 95.6284 39.248 95.6284 38.352C95.6284 37.456 95.7724 36.648 96.0604 35.928C96.3644 35.192 96.7804 34.568 97.3084 34.056C97.8524 33.528 98.5084 33.12 99.2764 32.832C100.06 32.544 100.932 32.4 101.892 32.4C102.788 32.4 103.724 32.528 104.7 32.784C105.676 33.024 106.612 33.384 107.508 33.864L105.636 37.536Z" stroke="#939497" stroke-width="0.6"/>
<path d="M114 32.904V42.744C114 43.272 114.016 43.816 114.048 44.376C114.096 44.92 114.216 45.416 114.408 45.864C114.616 46.312 114.936 46.68 115.368 46.968C115.8 47.24 116.408 47.376 117.192 47.376C117.976 47.376 118.576 47.24 118.992 46.968C119.424 46.68 119.744 46.312 119.952 45.864C120.16 45.416 120.28 44.92 120.312 44.376C120.36 43.816 120.384 43.272 120.384 42.744V32.904H125.064V43.392C125.064 46.208 124.416 48.264 123.12 49.56C121.84 50.856 119.864 51.504 117.192 51.504C114.52 51.504 112.536 50.856 111.24 49.56C109.944 48.264 109.296 46.208 109.296 43.392V32.904H114Z" stroke="#939497" stroke-width="0.6"/>
<path d="M131.65 40.992H132.538C133.466 40.992 134.178 40.8 134.674 40.416C135.17 40.032 135.418 39.48 135.418 38.76C135.418 38.04 135.17 37.488 134.674 37.104C134.178 36.72 133.466 36.528 132.538 36.528H131.65V40.992ZM141.994 51H136.138L131.65 44.04V51H126.946V32.904H134.266C135.274 32.904 136.154 33.056 136.906 33.36C137.658 33.648 138.274 34.048 138.754 34.56C139.25 35.072 139.618 35.664 139.858 36.336C140.114 37.008 140.242 37.728 140.242 38.496C140.242 39.872 139.906 40.992 139.234 41.856C138.578 42.704 137.602 43.28 136.306 43.584L141.994 51Z" stroke="#939497" stroke-width="0.6"/>
</svg>
